<svg width="108" height="108" viewBox="0 0 108 108" fill="none" xmlns="http://www.w3.org/2000/svg">
<circle cx="54" cy="54" r="54" fill="white"/>
<g clip-path="url(#clip0_50_169)">
<path d="M75.0163 70.5728L68.1265 77.4626L31.5375 40.8697L38.4274 33.9798C48.5309 23.8764 64.9168 23.8764 75.0203 33.9798C85.1238 44.0873 85.1238 60.4693 75.0163 70.5728Z" fill="#96844A" stroke="#635831" stroke-width="2" stroke-miterlimit="10"/>
<path d="M68.5706 77.0163C78.675 66.912 78.675 50.5296 68.5706 40.4252C58.4663 30.3208 42.0839 30.3208 31.9795 40.4252C21.8751 50.5296 21.8751 66.912 31.9795 77.0163C42.0839 87.1207 58.4663 87.1207 68.5706 77.0163Z" fill="#72CC72" stroke="#38B038" stroke-width="2" stroke-miterlimit="10"/>
<path d="M50.2765 69.5311C56.2474 69.5311 61.0878 64.6907 61.0878 58.7197C61.0878 52.7487 56.2474 47.9083 50.2765 47.9083C44.3055 47.9083 39.4651 52.7487 39.4651 58.7197C39.4651 64.6907 44.3055 69.5311 50.2765 69.5311Z" fill="white"/>
<path d="M51.1009 45.1813C51.1009 45.668 50.2764 46.7017 50.2764 46.7017C50.2764 46.7017 49.4519 45.668 49.4519 45.1813C49.4519 44.6947 49.8219 44.3005 50.2764 44.3005C50.7309 44.3005 51.1009 44.6947 51.1009 45.1813Z" fill="#333333"/>
<path d="M49.4557 72.262C49.4557 71.7754 50.2803 70.7417 50.2803 70.7417C50.2803 70.7417 51.1048 71.7754 51.1048 72.262C51.1048 72.7487 50.7348 73.1429 50.2803 73.1429C49.8218 73.1429 49.4557 72.7487 49.4557 72.262Z" fill="#333333"/>
<path d="M44.2029 46.577C44.4442 46.9993 44.2512 48.3065 44.2512 48.3065C44.2512 48.3065 43.0204 47.8198 42.7791 47.4015C42.5337 46.9792 42.6584 46.4563 43.0526 46.2271C43.4427 46.0018 43.9575 46.1587 44.2029 46.577Z" fill="#333333"/>
<path d="M56.3537 70.8624C56.1124 70.4401 56.3054 69.1329 56.3054 69.1329C56.3054 69.1329 57.5362 69.6195 57.7775 70.0378C58.0188 70.4602 57.8982 70.9871 57.504 71.2123C57.1098 71.4416 56.595 71.2847 56.3537 70.8624Z" fill="#333333"/>
<path d="M38.9581 51.2225C39.3804 51.4639 39.863 52.6946 39.863 52.6946C39.863 52.6946 38.5559 52.8917 38.1335 52.6463C37.7112 52.405 37.5544 51.8862 37.7836 51.492C38.0089 51.0978 38.5358 50.9772 38.9581 51.2225Z" fill="#333333"/>
<path d="M61.5985 66.2209C61.1762 65.9796 60.6935 64.7488 60.6935 64.7488C60.6935 64.7488 62.0007 64.5517 62.423 64.7971C62.8453 65.0384 63.0022 65.5573 62.7729 65.9514C62.5437 66.3416 62.0168 66.4663 61.5985 66.2209Z" fill="#333333"/>
<path d="M36.738 57.8991C37.2246 57.8991 38.2583 58.7237 38.2583 58.7237C38.2583 58.7237 37.2246 59.5482 36.738 59.5482C36.2513 59.5482 35.8571 59.1782 35.8571 58.7237C35.8571 58.2651 36.2513 57.8991 36.738 57.8991Z" fill="#333333"/>
<path d="M63.8147 59.5442C63.328 59.5442 62.2943 58.7197 62.2943 58.7197C62.2943 58.7197 63.328 57.8951 63.8147 57.8951C64.3013 57.8951 64.6955 58.2652 64.6955 58.7197C64.6955 59.1742 64.3013 59.5442 63.8147 59.5442Z" fill="#333333"/>
<path d="M38.1336 64.7971C38.5559 64.5557 39.8631 64.7488 39.8631 64.7488C39.8631 64.7488 39.3764 65.9796 38.9581 66.2209C38.5358 66.4662 38.0089 66.3416 37.7837 65.9474C37.5544 65.5572 37.7153 65.0384 38.1336 64.7971Z" fill="#333333"/>
<path d="M62.4188 52.6463C61.9965 52.8876 60.6893 52.6946 60.6893 52.6946C60.6893 52.6946 61.176 51.4638 61.5943 51.2225C62.0166 50.9812 62.5395 51.1018 62.7687 51.496C62.998 51.8861 62.8411 52.405 62.4188 52.6463Z" fill="#333333"/>
<path d="M42.775 70.0418C43.0163 69.6195 44.247 69.1369 44.247 69.1369C44.247 69.1369 44.4441 70.4441 44.1988 70.8664C43.9575 71.2887 43.4386 71.4456 43.0444 71.2163C42.6543 70.987 42.5336 70.4601 42.775 70.0418Z" fill="#333333"/>
<path d="M57.7775 47.4015C57.5362 47.8238 56.3054 48.3064 56.3054 48.3064C56.3054 48.3064 56.1084 46.9993 56.3537 46.5769C56.595 46.1546 57.1139 45.9978 57.508 46.227C57.8982 46.4563 58.0189 46.9791 57.7775 47.4015Z" fill="#333333"/>
<path d="M38.6607 45.9496C39.0026 46.2915 39.1514 47.5946 39.1514 47.5946C39.1514 47.5946 37.8482 47.4458 37.5064 47.1039C37.1645 46.7621 37.1484 46.2271 37.4661 45.9094C37.7839 45.5916 38.3188 45.6077 38.6607 45.9496Z" fill="#333333"/>
<path d="M61.8922 71.4938C61.5503 71.152 61.4015 69.8488 61.4015 69.8488C61.4015 69.8488 62.7047 69.9976 63.0466 70.3395C63.3884 70.6814 63.4045 71.2163 63.0868 71.5341C62.769 71.8518 62.2341 71.8357 61.8922 71.4938Z" fill="#333333"/>
<path d="M33.8946 53.4508C34.3612 53.5755 35.1415 54.6293 35.1415 54.6293C35.1415 54.6293 33.9389 55.1522 33.4723 55.0275C33.0057 54.9028 32.7242 54.4483 32.8408 54.0139C32.9534 53.5755 33.428 53.3261 33.8946 53.4508Z" fill="#333333"/>
<path d="M66.6624 63.9927C66.1959 63.868 65.4156 62.8142 65.4156 62.8142C65.4156 62.8142 66.6182 62.2914 67.0848 62.416C67.5513 62.5407 67.8329 62.9952 67.7162 63.4296C67.5996 63.868 67.129 64.1174 66.6624 63.9927Z" fill="#333333"/>
<path d="M33.4682 62.416C33.9347 62.2914 35.1373 62.8142 35.1373 62.8142C35.1373 62.8142 34.3571 63.868 33.8905 63.9927C33.4239 64.1174 32.9534 63.864 32.8367 63.4296C32.7201 62.9952 33.0056 62.5407 33.4682 62.416Z" fill="#333333"/>
<path d="M67.0848 55.0275C66.6182 55.1522 65.4156 54.6293 65.4156 54.6293C65.4156 54.6293 66.1959 53.5755 66.6624 53.4508C67.129 53.3261 67.5996 53.5795 67.7162 54.0139C67.8329 54.4483 67.5513 54.9028 67.0848 55.0275Z" fill="#333333"/>
<path d="M37.5064 70.3395C37.8482 69.9976 39.1514 69.8488 39.1514 69.8488C39.1514 69.8488 39.0026 71.152 38.6607 71.4938C38.3188 71.8357 37.7839 71.8518 37.4661 71.5341C37.1484 71.2163 37.1645 70.6774 37.5064 70.3395Z" fill="#333333"/>
<path d="M63.0467 47.1039C62.7089 47.4458 61.4057 47.5946 61.4057 47.5946C61.4057 47.5946 61.5545 46.2915 61.8964 45.9496C62.2383 45.6077 62.7732 45.5916 63.091 45.9094C63.4087 46.2271 63.3886 46.7621 63.0467 47.1039Z" fill="#333333"/>
<path d="M45.0035 75.1057C45.1282 74.6391 46.182 73.8589 46.182 73.8589C46.182 73.8589 46.7049 75.0615 46.5802 75.528C46.4555 75.9946 46.001 76.2761 45.5666 76.1595C45.1322 76.0469 44.8789 75.5723 45.0035 75.1057Z" fill="#333333"/>
<path d="M55.5496 42.3377C55.4249 42.8043 54.3711 43.5845 54.3711 43.5845C54.3711 43.5845 53.8482 42.3819 53.9729 41.9154C54.0976 41.4488 54.5521 41.1673 54.9865 41.2839C55.4209 41.3965 55.6742 41.8711 55.5496 42.3377Z" fill="#333333"/>
<path d="M53.9729 75.528C53.8482 75.0615 54.3711 73.8589 54.3711 73.8589C54.3711 73.8589 55.4249 74.6391 55.5496 75.1057C55.6742 75.5723 55.4209 76.0428 54.9865 76.1595C54.5521 76.2801 54.0976 75.9946 53.9729 75.528Z" fill="#333333"/>
<path d="M46.5841 41.9155C46.7087 42.382 46.1859 43.5846 46.1859 43.5846C46.1859 43.5846 45.1321 42.8043 45.0074 42.3378C44.8827 41.8712 45.1361 41.4006 45.5705 41.284C46.0049 41.1633 46.4594 41.4489 46.5841 41.9155Z" fill="#333333"/>
</g>
<defs>
<clipPath id="clip0_50_169">
<rect width="67" height="77" fill="white" transform="translate(20 17)"/>
</clipPath>
</defs>
</svg>
