<svg width="92" height="47" viewBox="0 0 92 47" fill="none" xmlns="http://www.w3.org/2000/svg">
<path fill-rule="evenodd" clip-rule="evenodd" d="M0 46.7422H45V26.7422H0V46.7422Z" fill="#FFB000"/>
<path fill-rule="evenodd" clip-rule="evenodd" d="M9.5022 32.8753C9.5022 31.5099 8.39033 30.4036 7.01881 30.4036C5.64849 30.4036 4.53662 31.5099 4.53662 32.8753C4.53662 34.2407 5.64849 35.3476 7.01881 35.3476C8.39033 35.3476 9.5022 34.2407 9.5022 32.8753" fill="#FFD74F"/>
<path fill-rule="evenodd" clip-rule="evenodd" d="M18.1058 38.5607C18.1058 37.1953 16.994 36.0884 15.6224 36.0884C14.2515 36.0884 13.1396 37.1953 13.1396 38.5607C13.1396 39.9261 14.2515 41.0324 15.6224 41.0324C16.994 41.0324 18.1058 39.9261 18.1058 38.5607" fill="#FFD74F"/>
<path fill-rule="evenodd" clip-rule="evenodd" d="M9.5022 42.5155C9.5022 41.1501 8.39033 40.0432 7.01881 40.0432C5.64849 40.0432 4.53662 41.1501 4.53662 42.5155C4.53662 43.8809 5.64849 44.9873 7.01881 44.9873C8.39033 44.9873 9.5022 43.8809 9.5022 42.5155" fill="#FFD74F"/>
<path fill-rule="evenodd" clip-rule="evenodd" d="M23.2577 31.2688C23.2577 29.9034 22.1458 28.7971 20.7743 28.7971C19.4034 28.7971 18.2915 29.9034 18.2915 31.2688C18.2915 32.6342 19.4034 33.7406 20.7743 33.7406C22.1458 33.7406 23.2577 32.6342 23.2577 31.2688" fill="#FFD74F"/>
<path fill-rule="evenodd" clip-rule="evenodd" d="M39.8711 33.7403C39.8711 32.3755 38.7592 31.2686 37.3877 31.2686C36.0168 31.2686 34.9049 32.3755 34.9049 33.7403C34.9049 35.1057 36.0168 36.2126 37.3877 36.2126C38.7592 36.2126 39.8711 35.1057 39.8711 33.7403" fill="#FFD74F"/>
<path fill-rule="evenodd" clip-rule="evenodd" d="M29.3654 40.3531C29.3654 38.9877 28.2535 37.8813 26.882 37.8813C25.5116 37.8813 24.3998 38.9877 24.3998 40.3531C24.3998 41.7185 25.5116 42.8254 26.882 42.8254C28.2535 42.8254 29.3654 41.7185 29.3654 40.3531" fill="#FFD74F"/>
<path fill-rule="evenodd" clip-rule="evenodd" d="M33.4 27.1501H28.4344C28.4344 28.515 29.5457 29.6219 30.9166 29.6219C32.2882 29.6219 33.4 28.515 33.4 27.1501" fill="#FFD74F"/>
<path fill-rule="evenodd" clip-rule="evenodd" d="M39.2345 43.5043C39.2345 42.1389 38.1232 41.032 36.7517 41.032C35.3808 41.032 34.2689 42.1389 34.2689 43.5043C34.2689 44.8697 35.3808 45.976 36.7517 45.976C38.1232 45.976 39.2345 44.8697 39.2345 43.5043" fill="#FFD74F"/>
<path fill-rule="evenodd" clip-rule="evenodd" d="M0 27.1666H44.617L34.9049 20.4619L0 27.1666Z" fill="#FFD74F"/>
<mask id="mask0_74_310" style="mask-type:luminance" maskUnits="userSpaceOnUse" x="0" y="0" width="92" height="47">
<path fill-rule="evenodd" clip-rule="evenodd" d="M0 46.7421H91.9504V0H0V46.7421Z" fill="white"/>
</mask>
<g mask="url(#mask0_74_310)">
<path fill-rule="evenodd" clip-rule="evenodd" d="M47.334 46.7421H91.9504V27.1672H47.334V46.7421Z" fill="#FFB000"/>
<path fill-rule="evenodd" clip-rule="evenodd" d="M59.9087 32.8753C59.9087 31.5099 58.7968 30.4036 57.4253 30.4036C56.0544 30.4036 54.9431 31.5099 54.9431 32.8753C54.9431 34.2407 56.0544 35.3476 57.4253 35.3476C58.7968 35.3476 59.9087 34.2407 59.9087 32.8753" fill="#FFD74F"/>
<path fill-rule="evenodd" clip-rule="evenodd" d="M64.6763 43.0346C64.6763 41.6692 63.565 40.5623 62.1935 40.5623C60.8226 40.5623 59.7107 41.6692 59.7107 43.0346C59.7107 44.4 60.8226 45.5063 62.1935 45.5063C63.565 45.5063 64.6763 44.4 64.6763 43.0346" fill="#FFD74F"/>
<path fill-rule="evenodd" clip-rule="evenodd" d="M55.3627 40.0435C55.3627 38.6781 54.2508 37.5718 52.8793 37.5718C51.5084 37.5718 50.3965 38.6781 50.3965 40.0435C50.3965 41.4089 51.5084 42.5158 52.8793 42.5158C54.2508 42.5158 55.3627 41.4089 55.3627 40.0435" fill="#FFD74F"/>
<path fill-rule="evenodd" clip-rule="evenodd" d="M70.5912 31.2688C70.5912 29.9034 69.4793 28.7971 68.1084 28.7971C66.7375 28.7971 65.6256 29.9034 65.6256 31.2688C65.6256 32.6342 66.7375 33.7406 68.1084 33.7406C69.4793 33.7406 70.5912 32.6342 70.5912 31.2688" fill="#FFD74F"/>
<path fill-rule="evenodd" clip-rule="evenodd" d="M87.2046 33.7403C87.2046 32.3755 86.0927 31.2686 84.7218 31.2686C83.3509 31.2686 82.239 32.3755 82.239 33.7403C82.239 35.1057 83.3509 36.2126 84.7218 36.2126C86.0927 36.2126 87.2046 35.1057 87.2046 33.7403" fill="#FFD74F"/>
<path fill-rule="evenodd" clip-rule="evenodd" d="M75.2092 40.0435C75.2092 38.6781 74.0974 37.5718 72.7264 37.5718C71.3555 37.5718 70.2437 38.6781 70.2437 40.0435C70.2437 41.4089 71.3555 42.5158 72.7264 42.5158C74.0974 42.5158 75.2092 41.4089 75.2092 40.0435" fill="#FFD74F"/>
<path fill-rule="evenodd" clip-rule="evenodd" d="M80.7334 27.1501H75.7678C75.7678 28.515 76.8797 29.6219 78.2506 29.6219C79.6221 29.6219 80.7334 28.515 80.7334 27.1501" fill="#FFD74F"/>
<path fill-rule="evenodd" clip-rule="evenodd" d="M86.5686 43.5043C86.5686 42.1389 85.4567 41.032 84.0852 41.032C82.7143 41.032 81.603 42.1389 81.603 43.5043C81.603 44.8697 82.7143 45.976 84.0852 45.976C85.4567 45.976 86.5686 44.8697 86.5686 43.5043" fill="#FFD74F"/>
<path fill-rule="evenodd" clip-rule="evenodd" d="M47.3341 27.1666H91.9505L82.239 20.4619L47.3341 27.1666Z" fill="#FFD74F"/>
<path fill-rule="evenodd" clip-rule="evenodd" d="M24.5961 26.1037H69.213V6.52881H24.5961V26.1037Z" fill="#FFB000"/>
<path fill-rule="evenodd" clip-rule="evenodd" d="M64.6763 12.2367C64.6763 10.8713 63.565 9.7644 62.1935 9.7644C60.8226 9.7644 59.7107 10.8713 59.7107 12.2367C59.7107 13.6021 60.8226 14.709 62.1935 14.709C63.565 14.709 64.6763 13.6021 64.6763 12.2367" fill="#FFD74F"/>
<path fill-rule="evenodd" clip-rule="evenodd" d="M56.0731 17.9217C56.0731 16.5563 54.9613 15.45 53.5897 15.45C52.2188 15.45 51.1075 16.5563 51.1075 17.9217C51.1075 19.2871 52.2188 20.394 53.5897 20.394C54.9613 20.394 56.0731 19.2871 56.0731 17.9217" fill="#FFD74F"/>
<path fill-rule="evenodd" clip-rule="evenodd" d="M64.6763 21.8767C64.6763 20.5113 63.565 19.405 62.1935 19.405C60.8226 19.405 59.7107 20.5113 59.7107 21.8767C59.7107 23.2422 60.8226 24.3491 62.1935 24.3491C63.565 24.3491 64.6763 23.2422 64.6763 21.8767" fill="#FFD74F"/>
<path fill-rule="evenodd" clip-rule="evenodd" d="M50.9208 10.6303C50.9208 9.26487 49.8095 8.15796 48.438 8.15796C47.0671 8.15796 45.9552 9.26487 45.9552 10.6303C45.9552 11.9951 47.0671 13.102 48.438 13.102C49.8095 13.102 50.9208 11.9951 50.9208 10.6303" fill="#FFD74F"/>
<path fill-rule="evenodd" clip-rule="evenodd" d="M34.3079 13.1018C34.3079 11.7364 33.196 10.6301 31.8245 10.6301C30.4535 10.6301 29.3423 11.7364 29.3423 13.1018C29.3423 14.4673 30.4535 15.5742 31.8245 15.5742C33.196 15.5742 34.3079 14.4673 34.3079 13.1018" fill="#FFD74F"/>
<path fill-rule="evenodd" clip-rule="evenodd" d="M44.8131 19.7148C44.8131 18.3493 43.7019 17.2424 42.3303 17.2424C40.9594 17.2424 39.8475 18.3493 39.8475 19.7148C39.8475 21.0802 40.9594 22.1865 42.3303 22.1865C43.7019 22.1865 44.8131 21.0802 44.8131 19.7148" fill="#FFD74F"/>
<path fill-rule="evenodd" clip-rule="evenodd" d="M49.3874 23.6321C48.0159 23.6321 46.9041 24.7384 46.9041 26.1038H51.8702C51.8702 24.7384 50.759 23.6321 49.3874 23.6321" fill="#FFD74F"/>
<path fill-rule="evenodd" clip-rule="evenodd" d="M40.7784 6.51123H35.8129C35.8129 7.87664 36.9247 8.98355 38.2957 8.98355C39.6672 8.98355 40.7784 7.87664 40.7784 6.51123" fill="#FFD74F"/>
<path fill-rule="evenodd" clip-rule="evenodd" d="M34.9439 22.8653C34.9439 21.4999 33.8326 20.3936 32.4611 20.3936C31.0901 20.3936 29.9783 21.4999 29.9783 22.8653C29.9783 24.2307 31.0901 25.3376 32.4611 25.3376C33.8326 25.3376 34.9439 24.2307 34.9439 22.8653" fill="#FFD74F"/>
<path fill-rule="evenodd" clip-rule="evenodd" d="M24.5959 6.52818H69.2129L31.0335 0L24.5959 6.52818Z" fill="#FFD74F"/>
</g>
</svg>
