<svg width="25" height="79" viewBox="0 0 25 79" fill="none" xmlns="http://www.w3.org/2000/svg">
<mask id="mask0_74_312" style="mask-type:luminance" maskUnits="userSpaceOnUse" x="0" y="8" width="25" height="71">
<path fill-rule="evenodd" clip-rule="evenodd" d="M0 8.05615H24.889V78.916H0V8.05615Z" fill="white"/>
</mask>
<g mask="url(#mask0_74_312)">
<path fill-rule="evenodd" clip-rule="evenodd" d="M1.00226 67.3281C-1.24582 52.6765 0.198414 23.6643 6.24393 13.945C13.601 2.11425 23.2317 9.93256 21.7023 21.3648C19.8439 35.2687 20.4664 49.7258 24.3869 64.3812C28.6894 80.4733 4.03623 85.5987 1.00226 67.3281" fill="#239130"/>
</g>
<path fill-rule="evenodd" clip-rule="evenodd" d="M14.8626 8.40663C14.8626 8.40663 7.27377 8.25918 6.99988 3.37382C6.99988 3.37382 10.1994 2.75264 11.7536 3.99626C13.3084 5.23862 13.9479 6.21619 13.9479 6.21619C13.9479 6.21619 12.4848 3.81869 15.9595 0C15.9595 0 18.8857 3.46292 16.5085 6.92647C16.5085 6.92647 20.073 4.43987 22.9999 7.19251C22.9999 7.19251 20.978 10.2557 14.8626 8.40663" fill="#FFC82C"/>
<path fill-rule="evenodd" clip-rule="evenodd" d="M0.999878 69.4161C0.999878 69.4161 5.77529 76.3532 8.96455 75.783C8.96455 75.783 5.75771 64.9958 7.93185 55C7.93185 55 7.97287 74.0872 13.4404 75.8491C13.4404 75.8491 16.1589 66.7095 15.2343 60.4266C15.2343 60.4266 17.7353 71.5429 17.275 75.8067C17.275 75.8067 19.2577 76.6303 23.9999 72.1432C23.9999 72.1432 21.8674 78.5313 13.2972 78.9956C13.2972 78.9956 3.92672 79.5081 0.999878 69.4161" fill="#64CC5C"/>
<path fill-rule="evenodd" clip-rule="evenodd" d="M6.99988 41C6.99988 42.1043 6.55194 43 6.00016 43C5.44782 43 4.99988 42.1043 4.99988 41C4.99988 39.8951 5.44782 39 6.00016 39C6.55194 39 6.99988 39.8951 6.99988 41" fill="#64CC5C"/>
<path fill-rule="evenodd" clip-rule="evenodd" d="M13.9999 46.9994C13.9999 48.1043 13.5525 49 13.0007 49C12.4478 49 11.9999 48.1043 11.9999 46.9994C11.9999 45.8951 12.4478 45 13.0007 45C13.5525 45 13.9999 45.8951 13.9999 46.9994" fill="#64CC5C"/>
<path fill-rule="evenodd" clip-rule="evenodd" d="M5.99988 55.9994C5.99988 57.1043 5.55194 58 5.00016 58C4.44782 58 3.99988 57.1043 3.99988 55.9994C3.99988 54.8951 4.44782 54 5.00016 54C5.55194 54 5.99988 54.8951 5.99988 55.9994" fill="#64CC5C"/>
<path fill-rule="evenodd" clip-rule="evenodd" d="M12.9999 62C12.9999 63.1049 12.5519 64 12.0002 64C11.4478 64 10.9999 63.1049 10.9999 62C10.9999 60.8951 11.4478 60 12.0002 60C12.5519 60 12.9999 60.8951 12.9999 62" fill="#64CC5C"/>
<path fill-rule="evenodd" clip-rule="evenodd" d="M20.9999 57.0003C20.9999 58.1044 20.5531 59 20.0007 59C19.4484 59 18.9999 58.1044 18.9999 57.0003C18.9999 55.8956 19.4484 55 20.0007 55C20.5531 55 20.9999 55.8956 20.9999 57.0003" fill="#64CC5C"/>
<path fill-rule="evenodd" clip-rule="evenodd" d="M17.9999 37C17.9999 38.1049 17.5514 39 16.9996 39C16.4473 39 15.9999 38.1049 15.9999 37C15.9999 35.8957 16.4473 35 16.9996 35C17.5514 35 17.9999 35.8957 17.9999 37" fill="#64CC5C"/>
<path fill-rule="evenodd" clip-rule="evenodd" d="M8.99988 28.9994C8.99988 30.1043 8.55194 31 8.00016 31C7.44782 31 6.99988 30.1043 6.99988 28.9994C6.99988 27.8951 7.44782 27 8.00016 27C8.55194 27 8.99988 27.8951 8.99988 28.9994" fill="#64CC5C"/>
<path fill-rule="evenodd" clip-rule="evenodd" d="M16.9999 20.9997C16.9999 22.1044 16.5524 23 16.0004 23C15.4479 23 14.9999 22.1044 14.9999 20.9997C14.9999 19.8956 15.4479 19 16.0004 19C16.5524 19 16.9999 19.8956 16.9999 20.9997" fill="#64CC5C"/>
<path fill-rule="evenodd" clip-rule="evenodd" d="M11.9999 14C11.9999 15.1049 11.5524 16 10.9999 16C10.4474 16 9.99988 15.1049 9.99988 14C9.99988 12.8951 10.4474 12 10.9999 12C11.5524 12 11.9999 12.8951 11.9999 14" fill="#64CC5C"/>
<path fill-rule="evenodd" clip-rule="evenodd" d="M22.9999 70C22.9999 71.1043 22.5519 72 21.9996 72C21.4473 72 20.9999 71.1043 20.9999 70C20.9999 68.8951 21.4473 68 21.9996 68C22.5519 68 22.9999 68.8951 22.9999 70" fill="#64CC5C"/>
</svg>
