<svg width="16" height="24" viewBox="0 0 16 24" fill="none" xmlns="http://www.w3.org/2000/svg">
<path d="M13.9158 23.9996C14.2705 24.0074 14.6188 23.9046 14.9123 23.7052C15.2058 23.5059 15.43 23.22 15.5535 22.8874C15.6771 22.5548 15.694 22.192 15.6018 21.8494C15.5097 21.5068 15.313 21.2015 15.0393 20.9758L4.59418 12.0277L15.0393 3.08265C15.2287 2.94347 15.3872 2.76678 15.5051 2.56347C15.623 2.36016 15.6976 2.13464 15.7244 1.90115C15.7511 1.66767 15.7293 1.43123 15.6604 1.20655C15.5914 0.981867 15.4769 0.773771 15.3238 0.595419C15.1708 0.417067 14.9826 0.272394 14.771 0.170151C14.5594 0.0679072 14.3289 0.0104827 14.0941 0.00142083C13.8593 -0.0076391 13.6251 0.0317514 13.4062 0.117386C13.1874 0.20302 12.9886 0.332916 12.8222 0.498947L0.863546 10.7308C0.675749 10.8911 0.524947 11.09 0.421541 11.3142C0.318136 11.5384 0.264588 11.7824 0.264588 12.0292C0.264588 12.2761 0.318136 12.5201 0.421541 12.7443C0.524947 12.9685 0.675749 13.1676 0.863545 13.3279L12.8222 23.5696C13.1243 23.8379 13.5118 23.9905 13.9158 24L13.9158 23.9996Z" fill="white"/>
</svg>
