<svg width="120" height="54" viewBox="0 0 120 54" fill="none" xmlns="http://www.w3.org/2000/svg">
<g clip-path="url(#clip0_15_932)">
<path d="M119.902 6.1663C120.035 5.82437 120.028 5.44312 119.883 5.10641C119.737 4.7697 119.465 4.50513 119.126 4.37088C118.787 4.23664 118.409 4.24373 118.076 4.39059C117.742 4.53744 117.48 4.81205 117.347 5.15398L112.818 16.7727C109.463 15.905 105.971 17.025 103.485 19.8496C102.061 21.4743 100.679 23.899 100.679 26.1882L100.633 26.2405C100.405 26.5729 98.346 29.456 96.5313 28.299C96.0067 27.9636 96.3605 26.6898 96.7692 25.419C96.8302 25.2221 96.8912 25.0374 96.943 24.859C96.9674 24.7759 96.9918 24.6928 97.0162 24.6036C97.1068 24.2521 97.0568 23.8787 96.8771 23.564C96.6974 23.2494 96.4023 23.0185 96.0555 22.9212C95.7086 22.824 95.3378 22.8681 95.0229 23.0441C94.708 23.22 94.4742 23.5138 94.372 23.862C93.826 25.8498 92.112 28.7083 89.6386 28.4221C89.3599 28.4052 89.0899 28.3184 88.8529 28.1696C88.6159 28.0207 88.4194 27.8146 88.2814 27.5698C87.8117 26.7698 87.7873 25.4713 88.2204 24.4159C89.5379 21.2127 92.7738 19.7358 95.9152 20.905C96.0844 20.9679 96.2643 20.9965 96.4444 20.9892C96.6246 20.9819 96.8016 20.9389 96.9653 20.8626C97.129 20.7863 97.2762 20.6783 97.3985 20.5446C97.5208 20.4109 97.6158 20.2542 97.678 20.0835C97.7403 19.9128 97.7687 19.7314 97.7614 19.5496C97.7542 19.3678 97.7116 19.1892 97.636 19.0241C97.5604 18.8589 97.4532 18.7104 97.3207 18.5871C97.1882 18.4637 97.0329 18.3678 96.8637 18.305C92.2889 16.6065 87.5891 18.7296 85.686 23.3543C85.1128 24.7538 85.0152 26.3054 85.4084 27.7667C85.3885 27.7747 85.3692 27.7839 85.3505 27.7944C84.6909 28.1784 83.958 28.4165 83.2003 28.4929C82.1268 28.5975 80.8824 28.1852 80.5835 27.0467C80.2206 25.6559 80.4981 24.022 80.8489 22.6528C81.1721 21.3974 83.2217 15.8373 83.3376 15.8496C85.7393 16.1141 88.1668 15.7042 90.3523 14.6649C92.2859 13.7572 95.3083 11.2526 96.0463 8.46789C96.2281 7.84951 96.2676 7.19745 96.1619 6.56133C96.0562 5.92521 95.8081 5.32181 95.4364 4.79705C93.9572 2.7047 90.8616 2.78162 88.6108 3.73857C84.8869 5.32014 82.9258 8.96944 81.5503 12.6618C80.101 12.211 78.7399 11.5104 77.5276 10.591C77.3826 10.4829 77.2179 10.4047 77.043 10.3608C76.868 10.3169 76.6862 10.3082 76.5079 10.3352C76.3296 10.3622 76.1584 10.4244 76.0039 10.5182C75.8495 10.612 75.7148 10.7355 75.6077 10.8818C75.5005 11.0281 75.423 11.1942 75.3795 11.3707C75.336 11.5472 75.3274 11.7306 75.3541 11.9105C75.3809 12.0903 75.4425 12.2631 75.5355 12.419C75.6284 12.5748 75.7509 12.7106 75.8959 12.8187C77.3304 13.9027 78.9358 14.7349 80.6445 15.2803C80.551 15.5696 80.4595 15.8557 80.37 16.1388L80.3182 16.2988C80.1443 16.8311 79.3178 18.7758 78.409 20.9574C77.9283 22.1721 77.3721 23.355 76.7437 24.499C75.6763 26.2652 73.7274 28.2898 72.2269 28.5637C72.011 28.6123 71.7868 28.6098 71.572 28.5564C71.3572 28.503 71.1575 28.4002 70.9887 28.256C70.5403 27.9052 71.0801 26.179 71.3394 25.3482C71.4156 25.1021 71.4888 24.8713 71.5498 24.6559C71.5484 24.6405 71.5484 24.6251 71.5498 24.6097C71.5512 24.6006 71.5512 24.5912 71.5498 24.582C71.6404 24.2305 71.5904 23.8572 71.4107 23.5425C71.231 23.2278 70.9359 22.997 70.5891 22.8997C70.2422 22.8024 69.8714 22.8465 69.5565 23.0225C69.2416 23.1985 69.0078 23.4923 68.9056 23.8405C68.3536 25.8282 66.6426 28.6714 64.1752 28.3883C63.8966 28.3714 63.6265 28.2846 63.3895 28.1357C63.1525 27.9869 62.9561 27.7807 62.818 27.536C62.3484 26.7359 62.324 25.4375 62.7571 24.382C64.1143 21.0835 67.0269 19.705 70.1469 20.8712C70.4886 20.9981 70.8664 20.9828 71.197 20.8288C71.5275 20.6747 71.7839 20.3944 71.9097 20.0496C72.0355 19.7049 72.0204 19.3238 71.8676 18.9903C71.7149 18.6567 71.4371 18.398 71.0954 18.2712C66.6029 16.6003 62.1318 18.6773 60.2226 23.3205C59.4571 25.1851 59.5455 27.3913 60.4513 28.9421C60.8074 29.5555 61.3028 30.0748 61.8966 30.4572C62.4905 30.8397 63.1659 31.0745 63.8672 31.1422C64.7105 31.2319 65.563 31.1389 66.3678 30.8693C67.1725 30.5998 67.9109 30.1599 68.5335 29.5791C68.7287 29.9062 68.9832 30.1932 69.2838 30.4252C70.0247 31.0233 70.9455 31.3489 71.8945 31.3483C72.1655 31.3478 72.436 31.3231 72.7027 31.2745C74.8894 30.8714 76.762 29.0006 77.9057 27.5821C78.0796 28.509 78.5589 29.3494 79.266 29.9668C80.2481 30.8307 81.5166 31.2899 82.8191 31.2529C84.1973 31.2356 85.5476 30.8582 86.7381 30.1575C86.7735 30.144 86.8081 30.1286 86.8419 30.1114C87.5423 30.7151 88.4081 31.0896 89.3244 31.1852C90.1727 31.2753 91.0302 31.1805 91.839 30.9071C92.6478 30.6337 93.3889 30.1881 94.0121 29.6006C94.2752 30.0258 94.6322 30.3838 95.0551 30.6468C95.7757 31.1044 96.6101 31.3465 97.4615 31.3453C98.7882 31.3453 100.292 30.7637 101.75 29.2344C102.176 29.7385 102.694 30.1561 103.275 30.4652C103.972 30.8434 104.752 31.0411 105.544 31.0406C106.199 31.0349 106.849 30.9119 107.462 30.6775C108.41 30.3084 109.279 29.759 110.021 29.0591C110.17 29.4179 110.366 29.7552 110.603 30.0622C110.931 30.4724 111.341 30.8081 111.806 31.0473C112.271 31.2864 112.781 31.4236 113.302 31.4499C113.446 31.4499 113.586 31.4653 113.723 31.4653C117.365 31.4653 119.475 28.0283 119.567 27.8744C119.74 27.5617 119.786 27.1935 119.696 26.8471C119.606 26.5007 119.386 26.203 119.083 26.0166C118.78 25.8302 118.417 25.7696 118.07 25.8475C117.724 25.9254 117.421 26.1358 117.225 26.4344C117.225 26.4559 115.7 28.8467 113.498 28.6867C113.357 28.6862 113.218 28.6536 113.091 28.5912C112.964 28.5289 112.853 28.4385 112.766 28.3267C111.546 26.8036 112.68 24.7697 113.275 23.2374L115.511 17.4711C116.324 15.3562 117.145 13.2423 117.975 11.1295C118.536 9.68329 119.098 8.23506 119.661 6.78478L119.902 6.1663ZM89.6599 6.29861C90.9348 5.75706 92.6457 5.64937 93.1886 6.41554C93.3252 6.60826 93.414 6.83126 93.4474 7.06578C93.4809 7.3003 93.458 7.5395 93.3808 7.76326C92.9233 9.49867 90.6145 11.5018 89.1597 12.1726L89.0774 12.2157C87.5815 12.9112 85.94 13.228 84.2952 13.1387C85.4633 10.1418 87.0187 7.42171 89.6599 6.29861ZM109.691 24.8559C109.164 26.2129 107.801 27.5975 106.523 28.0744C106.214 28.2105 105.878 28.2756 105.541 28.265C105.204 28.2543 104.874 28.1682 104.574 28.0129C103.714 27.5513 103.525 26.9975 103.458 26.6221C103.198 25.1667 104.354 23.0466 105.541 21.6989C106.947 20.0989 108.722 19.2589 110.564 19.2589C110.986 19.2595 111.407 19.3028 111.82 19.3881C110.631 22.4651 109.716 24.8282 109.691 24.8559Z" fill="#26C6D0"/>
<path d="M91.6667 35.6193C87.4823 40.1824 81.1599 41.6625 72.8764 40.0163C64.7516 38.4009 58.112 34.447 57.3831 34.0039C56.3523 33.3885 55.4587 32.7731 54.6169 32.2008C53.9664 29.4736 52.9398 26.8521 51.567 24.4129C51.2621 23.8652 50.9571 23.3144 50.6521 22.7637C48.3433 18.6651 46.1627 14.7943 47.8889 10.0465C49.606 5.82179 53.153 2.96943 56.9317 2.77558C57.2186 2.76148 57.506 2.76868 57.7918 2.79712C58.5479 2.87292 59.2877 3.06705 59.9847 3.37251C59.4646 3.68901 58.9663 4.04058 58.4933 4.42484C55.6477 6.7418 54.379 9.6311 55.233 12.5388C55.4208 13.2283 55.7673 13.8632 56.2442 14.392C56.7212 14.9208 57.3152 15.3285 57.9778 15.582C58.8337 15.8766 59.7443 15.9725 60.642 15.8628C61.5397 15.7531 62.4013 15.4404 63.1626 14.9481C65.1938 13.6742 66.4351 11.4188 66.3467 8.53569C66.3072 7.04886 65.887 5.59765 65.1267 4.3233C68.2447 3.7713 71.4556 4.35355 74.1879 5.96641C74.3443 6.05712 74.5169 6.11587 74.6958 6.1393C74.8747 6.16273 75.0564 6.15036 75.2306 6.10293C75.4047 6.0555 75.5679 5.97393 75.7109 5.86286C75.8538 5.7518 75.9736 5.61342 76.0635 5.45563C76.1535 5.29784 76.2117 5.12373 76.2349 4.94323C76.2581 4.76274 76.2459 4.57939 76.1989 4.40367C76.1519 4.22795 76.071 4.06329 75.9609 3.9191C75.8508 3.7749 75.7137 3.654 75.5573 3.56329C73.6872 2.46039 71.6144 1.75256 69.4648 1.48279C67.3152 1.21303 65.1337 1.38696 63.0528 1.99402C62.9583 1.92325 62.8637 1.85248 62.7631 1.78479C61.3612 0.804884 59.7335 0.204186 58.0358 0.0401367C57.6172 -0.000644132 57.1962 -0.0109199 56.7762 0.00937441C51.933 0.25861 47.4375 3.79713 45.324 9.02185L45.3057 9.06493C43.122 15.0312 45.8455 19.8682 48.2518 24.1421C48.5568 24.6806 48.8618 25.216 49.1485 25.7514C49.8707 27.0687 50.5035 28.4339 51.0424 29.8376C48.9477 28.5463 46.6173 27.6925 44.1894 27.3268C39.6817 26.5853 35.8267 27.4345 32.7341 29.853C28.995 32.7762 27.345 37.3793 27.0705 40.4348C26.7655 43.9918 27.8025 47.2657 30.035 49.6657C32.2675 52.0658 35.4546 53.3581 39.0443 53.3581H39.5445C46.3975 53.1304 51.4023 49.3426 54.0191 42.4133C54.8067 40.3251 55.1687 38.0981 55.0835 35.8654C55.3611 36.0439 55.6508 36.2224 55.9497 36.407C56.7244 36.8778 63.7451 41.0594 72.3336 42.7671C81.4832 44.5856 88.8638 42.7671 93.6826 37.5362C93.9301 37.2665 94.0613 36.9087 94.0473 36.5414C94.0333 36.1741 93.8752 35.8275 93.6079 35.5778C93.3406 35.328 92.9859 35.1957 92.6218 35.2098C92.2578 35.224 91.9142 35.3834 91.6667 35.6531V35.6193ZM62.4215 5.18793C63.1775 6.16737 63.5971 7.36833 63.617 8.60953C63.675 10.4957 62.9186 11.8404 61.7292 12.5881C61.3251 12.856 60.8673 13.0305 60.3886 13.0991C59.9098 13.1677 59.422 13.1288 58.9599 12.985C58.6907 12.8867 58.4497 12.723 58.2582 12.5083C58.0667 12.2936 57.9306 12.0346 57.8619 11.7542C57.0812 9.0957 59.4845 7.17566 60.2134 6.5818C60.8903 6.02798 61.6318 5.55988 62.4215 5.18793ZM51.4633 41.3917C49.243 47.2811 45.205 50.3642 39.4682 50.558C36.4702 50.6596 33.8351 49.6565 32.0418 47.7426C30.3583 45.9426 29.5684 43.4348 29.8154 40.6655C30.0411 38.167 31.383 34.4039 34.4268 32.0254C36.3025 30.5576 38.5654 29.8223 41.1822 29.8223C42.0457 29.8261 42.9074 29.8991 43.7594 30.0407C47.468 30.6561 49.4626 31.9946 52.1617 33.8531C52.6099 36.3834 52.3686 38.989 51.4633 41.3917Z" fill="#26C6D0"/>
<path d="M4.11417 5.40952C5.15728 5.39404 6.19244 5.59469 7.1556 5.99905C8.11876 6.4034 8.98942 7.00286 9.71372 7.76033C10.4574 8.4954 11.0511 9.37037 11.4613 10.3358C11.8583 11.3116 12.0565 12.358 12.0438 13.4128C12.0438 15.5345 11.2084 17.5694 9.72127 19.0697C8.23418 20.57 6.21724 21.4129 4.11417 21.4129H1.0643C0.922871 21.4139 0.782745 21.3856 0.652578 21.3298C0.527802 21.2751 0.413273 21.1991 0.314029 21.1052C0.218167 21.0084 0.140647 20.8947 0.0852893 20.7698C0.0299676 20.6385 0.00195363 20.4971 0.00295565 20.3544V6.47109C0.00195363 6.3284 0.0299676 6.18702 0.0852893 6.05569C0.140647 5.93077 0.218167 5.81711 0.314029 5.7203C0.412475 5.62538 0.527193 5.54927 0.652578 5.49568C0.78255 5.43889 0.922667 5.40957 1.0643 5.40952H4.11417ZM4.11417 19.2898C4.87961 19.302 5.6394 19.1557 6.34654 18.8598C7.05369 18.564 7.69315 18.1249 8.22538 17.5698C8.78202 17.0345 9.22214 16.3882 9.51776 15.672C9.81337 14.9558 9.958 14.1853 9.94246 13.4097C9.93365 11.8529 9.31677 10.3624 8.22566 9.26163C7.13455 8.16081 5.65721 7.53844 4.11417 7.52956H2.1104V19.2898H4.11417Z" fill="#26C6D0"/>
<path d="M15.6976 20.3603V16.0525C15.6963 15.9151 15.7221 15.7789 15.7734 15.6517C15.8247 15.5244 15.9004 15.4087 15.9962 15.3111C16.0921 15.2136 16.2061 15.1361 16.3318 15.0833C16.4575 15.0305 16.5923 15.0032 16.7284 15.0033C16.8643 15.0016 16.9991 15.028 17.1245 15.0809C17.2498 15.1338 17.3631 15.2121 17.4573 15.3109C17.6518 15.5093 17.7613 15.7766 17.7623 16.0556V20.3634C17.7619 20.6424 17.6523 20.91 17.4573 21.108C17.3126 21.254 17.1281 21.3533 16.9273 21.3931C16.7264 21.4329 16.5184 21.4116 16.3297 21.3317C16.1409 21.2518 15.98 21.1171 15.8674 20.9446C15.7549 20.7722 15.6957 20.5698 15.6976 20.3634V20.3603Z" fill="#26C6D0"/>
<path d="M36.3912 20.3603V16.0525C36.3899 15.9151 36.4157 15.7789 36.467 15.6517C36.5182 15.5244 36.594 15.4087 36.6898 15.3111C36.7857 15.2136 36.8997 15.1361 37.0254 15.0833C37.1511 15.0305 37.2859 15.0032 37.422 15.0033C37.5579 15.0016 37.6927 15.028 37.8181 15.0809C37.9434 15.1338 38.0567 15.2121 38.1509 15.3109C38.3453 15.5093 38.4548 15.7766 38.4559 16.0556V20.3634C38.4555 20.6424 38.3459 20.91 38.1509 21.108C38.0062 21.254 37.8217 21.3533 37.6209 21.3931C37.42 21.4329 37.212 21.4116 37.0233 21.3317C36.8345 21.2518 36.6736 21.1171 36.561 20.9446C36.4485 20.7722 36.3893 20.5698 36.3912 20.3634V20.3603Z" fill="#26C6D0"/>
<path d="M30.5566 20.1817C29.8648 20.742 29.0501 21.127 28.1806 21.3044C27.3111 21.4818 26.4121 21.4465 25.5589 21.2014C24.7057 20.9563 23.9231 20.5086 23.2766 19.8958C22.6301 19.2829 22.1386 18.5227 21.8431 17.6789C21.5476 16.835 21.4567 15.932 21.5782 15.0454C21.6996 14.1588 22.0298 13.3145 22.541 12.5831C23.0523 11.8517 23.7298 11.2545 24.5168 10.8415C25.3038 10.4285 26.1774 10.2117 27.0645 10.2092C28.5366 10.2092 29.9485 10.7992 30.9894 11.8495C32.0304 12.8997 32.6152 14.3241 32.6152 15.8093V21.3694C32.618 21.833 32.5438 22.2937 32.3956 22.7325C32.253 23.1525 32.0473 23.5479 31.7857 23.9049C31.5244 24.2664 31.2167 24.5912 30.8707 24.871C30.5217 25.1567 30.141 25.4004 29.7362 25.5972C29.3283 25.793 28.9009 25.9447 28.4613 26.0495C28.0269 26.1558 27.5816 26.2095 27.1346 26.2095C26.6096 26.2103 26.0867 26.142 25.5792 26.0065C25.0713 25.8673 24.5841 25.6603 24.1305 25.3911C23.6691 25.1211 23.2472 24.7877 22.877 24.4003C22.4955 24.0077 22.1701 23.5634 21.9102 23.0802C21.8 22.9152 21.7445 22.7191 21.7516 22.5202C21.7487 22.3816 21.7742 22.2438 21.8267 22.1157C21.8792 21.9875 21.9575 21.8717 22.0566 21.7756C22.153 21.6763 22.2684 21.5978 22.3958 21.5449C22.5232 21.492 22.66 21.4658 22.7977 21.4679C22.9721 21.4616 23.144 21.5112 23.2887 21.6094C23.4942 21.7876 23.673 21.9949 23.8194 22.2248C24.0016 22.4852 24.2056 22.7292 24.4294 22.9541C25.151 23.6796 26.1273 24.0885 27.1461 24.092C28.1649 24.0954 29.1439 23.6931 29.8703 22.9725C30.2817 22.527 30.5246 21.9498 30.5566 21.3417V20.1817ZM27.0645 12.3016C26.5936 12.2969 26.127 12.3923 25.6951 12.5816C25.2837 12.7596 24.9099 13.0155 24.5941 13.3354C24.2823 13.6578 24.032 14.0354 23.856 14.4493C23.6768 14.8799 23.5846 15.3423 23.5846 15.8093C23.5846 16.2764 23.6768 16.7387 23.856 17.1694C24.0313 17.5846 24.2816 17.9634 24.5941 18.2863C24.9099 18.6063 25.2837 18.8622 25.6951 19.0402C26.1262 19.225 26.5899 19.3203 27.0584 19.3203C27.5268 19.3203 27.9905 19.225 28.4217 19.0402C28.8349 18.8612 29.2098 18.6031 29.5257 18.2801C29.841 17.9594 30.0935 17.5815 30.2699 17.1663C30.451 16.7378 30.5444 16.2767 30.5444 15.8109C30.5444 15.345 30.451 14.884 30.2699 14.4555C30.0935 14.0402 29.841 13.6624 29.5257 13.3416C29.2098 13.0187 28.8349 12.7606 28.4217 12.5816C27.9937 12.3935 27.5313 12.2981 27.0645 12.3016Z" fill="#26C6D0"/>
<path d="M39.1573 11.9173C39.1577 12.2043 39.0879 12.487 38.9542 12.7403C38.8204 12.9936 38.6268 13.2097 38.3904 13.3694C38.1541 13.5292 37.8823 13.6276 37.5993 13.656C37.3162 13.6844 37.0305 13.642 36.7676 13.5324C36.5047 13.4227 36.2726 13.2494 36.092 13.0277C35.9114 12.8059 35.7878 12.5426 35.7321 12.2612C35.6765 11.9797 35.6905 11.6887 35.773 11.4141C35.8555 11.1394 36.0039 10.8895 36.205 10.6865C36.4467 10.4426 36.7546 10.2764 37.0898 10.209C37.425 10.1415 37.7725 10.1758 38.0884 10.3075C38.4043 10.4392 38.6745 10.6624 38.8647 10.949C39.055 11.2355 39.1568 11.5724 39.1573 11.9173Z" fill="#EE6C8A"/>
<path d="M18.4639 11.9173C18.4643 12.2043 18.3946 12.487 18.2608 12.7403C18.1271 12.9936 17.9334 13.2097 17.6971 13.3694C17.4607 13.5292 17.189 13.6276 16.9059 13.656C16.6228 13.6844 16.3371 13.642 16.0742 13.5324C15.8113 13.4227 15.5793 13.2494 15.3986 13.0277C15.218 12.8059 15.0944 12.5426 15.0388 12.2612C14.9831 11.9797 14.9972 11.6887 15.0797 11.4141C15.1622 11.1394 15.3105 10.8895 15.5116 10.6865C15.7533 10.4426 16.0612 10.2764 16.3964 10.209C16.7316 10.1415 17.0792 10.1758 17.3951 10.3075C17.711 10.4392 17.9811 10.6624 18.1713 10.949C18.3616 11.2355 18.4634 11.5724 18.4639 11.9173Z" fill="#26C6D0"/>
</g>
<defs>
<clipPath id="clip0_15_932">
<rect width="120" height="53.3333" fill="white"/>
</clipPath>
</defs>
</svg>
