<svg width="100" height="71" viewBox="0 0 100 71" fill="none" xmlns="http://www.w3.org/2000/svg">
<mask id="mask0_60_333" style="mask-type:alpha" maskUnits="userSpaceOnUse" x="0" y="0" width="100" height="71">
<rect width="100" height="71" fill="#D9D9D9"/>
</mask>
<g mask="url(#mask0_60_333)">
<path d="M76.1965 26.8799C76.0152 24.9203 76.1538 19.5933 81.257 12.1857C81.643 11.6267 81.573 10.8728 81.0936 10.3936C79.013 8.31303 77.7249 7.00016 76.8214 6.08146C75.6334 4.87011 75.091 4.31816 74.2972 3.59844C73.7672 3.122 72.9652 3.11371 72.4295 3.58072C63.5347 11.3206 53.6553 27.3139 55.0849 46.908C55.9226 58.4134 64.3148 66.7644 75.0388 66.7644C86.0443 66.7644 94.9982 57.8119 94.9982 46.8063C94.9982 36.1894 86.6652 27.4828 76.1965 26.8799ZM75.0388 63.9519C65.8294 63.9519 58.6183 56.6982 57.8892 46.7048C57.8892 46.7048 57.8892 46.7048 57.8892 46.7034C56.281 24.6662 69.3808 10.3524 73.3387 6.56211C73.7246 6.9425 74.1654 7.39011 74.815 8.05203C75.5977 8.84853 76.669 9.93894 78.2894 11.565C72.0944 21.1093 73.2632 27.9098 73.7753 28.8849C74.0185 29.3477 74.517 29.6595 75.0388 29.6595C84.4939 29.6595 92.1857 37.3512 92.1857 46.8063C92.1857 56.2601 84.4939 63.9519 75.0388 63.9519Z" fill="white"/>
<path d="M26.2527 26.8798C26.07 24.9257 26.2046 19.6027 31.3132 12.1856C31.6978 11.6266 31.6291 10.8727 31.1498 10.3935C29.0734 8.317 27.7866 7.00554 26.8844 6.08683C25.6925 4.87282 25.1485 4.31932 24.3548 3.59833C23.8247 3.12189 23.0227 3.115 22.4872 3.57921C13.5924 11.3191 3.7115 27.3097 5.13828 46.9079V46.9093C5.97879 58.4133 14.3723 66.7643 25.0963 66.7643C36.1019 66.7643 45.0558 57.8118 45.0558 46.8062C45.0558 36.188 36.7227 27.48 26.2527 26.8798ZM25.0963 63.9518C15.8885 63.9518 8.67317 56.6981 7.94262 46.7033V46.7047C6.33865 24.662 19.4384 10.3509 23.3962 6.562C23.7835 6.9424 24.2257 7.39282 24.8767 8.05615C25.658 8.85264 26.7279 9.94165 28.3456 11.5649C22.1507 21.1106 23.3194 27.9097 23.8316 28.8834C24.0747 29.3462 24.5745 29.6594 25.0963 29.6594C34.5515 29.6594 42.2433 37.3511 42.2433 46.8062C42.2433 56.26 34.5515 63.9518 25.0963 63.9518Z" fill="white"/>
</g>
</svg>
