<svg width="61" height="61" viewBox="0 0 61 61" fill="none" xmlns="http://www.w3.org/2000/svg">
<mask id="mask0_74_309" style="mask-type:luminance" maskUnits="userSpaceOnUse" x="0" y="0" width="61" height="61">
<path fill-rule="evenodd" clip-rule="evenodd" d="M0 0H60.8561V60.8125H0V0Z" fill="white"/>
</mask>
<g mask="url(#mask0_74_309)">
<path fill-rule="evenodd" clip-rule="evenodd" d="M60.8561 30.4061C60.8561 47.1993 47.2331 60.8125 30.4283 60.8125C13.623 60.8125 -6.10352e-05 47.1993 -6.10352e-05 30.4061C-6.10352e-05 13.6132 13.623 0 30.4283 0C47.2331 0 60.8561 13.6132 60.8561 30.4061" fill="#C71C1C"/>
</g>
<mask id="mask1_74_309" style="mask-type:luminance" maskUnits="userSpaceOnUse" x="0" y="1" width="59" height="60">
<path fill-rule="evenodd" clip-rule="evenodd" d="M0 1.25952H58.5619V60.9993H0V1.25952Z" fill="white"/>
</mask>
<g mask="url(#mask1_74_309)">
<path fill-rule="evenodd" clip-rule="evenodd" d="M58.5618 31.1296C58.5618 47.6262 45.4524 60.9993 29.2811 60.9993C13.1098 60.9993 -6.10352e-05 47.6262 -6.10352e-05 31.1296C-6.10352e-05 14.6326 13.1098 1.25952 29.2811 1.25952C45.4524 1.25952 58.5618 14.6326 58.5618 31.1296" fill="#FA4141"/>
</g>
<path fill-rule="evenodd" clip-rule="evenodd" d="M55 31.313C55 45.3961 43.5834 56.8127 29.5004 56.8127C15.417 56.8127 4 45.3961 4 31.313C4 17.2294 15.417 5.81274 29.5004 5.81274C43.5834 5.81319 55 17.2294 55 31.313" fill="#FF7A7A"/>
<path fill-rule="evenodd" clip-rule="evenodd" d="M54 31.313C54 44.844 43.2551 55.8127 30.0002 55.8127C16.7453 55.8127 6 44.844 6 31.313C6 17.7819 16.7453 6.81274 30.0002 6.81274C43.2551 6.8132 54 17.7819 54 31.313" fill="#CF0C0C"/>
<path fill-rule="evenodd" clip-rule="evenodd" d="M37 20.3274C37 23.9259 34.6469 29.8127 29.2007 29.8127C23.755 29.8127 22 23.9259 22 20.3274C22 16.7295 25.3578 13.8127 29.4996 13.8127C33.6422 13.8127 37 16.7295 37 20.3274" fill="#FA4141"/>
<path fill-rule="evenodd" clip-rule="evenodd" d="M36.8218 43.634C33.5609 42.7161 28.8393 38.7941 30.2595 33.1941C31.6798 27.5941 37.4731 27.2917 40.7339 28.2096C43.9952 29.128 45.7631 33.3249 44.6827 37.5838C43.6023 41.8435 40.0831 44.552 36.8218 43.634" fill="#FA4141"/>
<path fill-rule="evenodd" clip-rule="evenodd" d="M22.1781 42.634C25.4389 41.7156 30.161 37.7942 28.7403 32.1942C27.3205 26.5943 21.5272 26.2914 18.2659 27.2098C15.0046 28.1277 13.2371 32.3246 14.3171 36.5838C15.3976 40.8436 18.9172 43.552 22.1781 42.634" fill="#FA4141"/>
<path fill-rule="evenodd" clip-rule="evenodd" d="M48.2525 13.8127L31 29.8127L51 17.4868L48.2525 13.8127Z" fill="#FF7A7A"/>
<path fill-rule="evenodd" clip-rule="evenodd" d="M28.989 32.8127L32 55.7174L25 55.8127L28.989 32.8127Z" fill="#FF7A7A"/>
<path fill-rule="evenodd" clip-rule="evenodd" d="M28 29.8127L7 21.5468L10.0918 15.8127L28 29.8127Z" fill="#FF7A7A"/>
<path fill-rule="evenodd" clip-rule="evenodd" d="M33 31.3125C33 33.2452 31.2088 34.8127 28.9998 34.8127C26.7907 34.8127 25 33.2452 25 31.3125C25 29.3798 26.7907 27.8127 28.9998 27.8127C31.2088 27.8127 33 29.3798 33 31.3125" fill="#FF7A7A"/>
<path fill-rule="evenodd" clip-rule="evenodd" d="M28.9601 11.8183C29.108 12.4622 28.8348 13.7111 28.3038 13.8069C27.7724 13.9023 27.1844 12.8082 27.0369 12.1647C26.8889 11.5208 27.1998 10.9211 27.7313 10.8257C28.2622 10.7299 28.8125 11.1748 28.9601 11.8183" fill="#FF7A7A"/>
<path fill-rule="evenodd" clip-rule="evenodd" d="M32.9845 12.1094C32.8886 12.7628 32.1699 13.8707 31.6292 13.8104C31.0886 13.7501 30.9304 12.5446 31.0264 11.8916C31.1219 11.2383 31.6383 10.7575 32.179 10.8179C32.7196 10.8782 33.0805 11.4564 32.9845 12.1094" fill="#FF7A7A"/>
<path fill-rule="evenodd" clip-rule="evenodd" d="M36.8166 13.5107C36.5168 14.1448 35.5822 15.0221 35.1891 14.7677C34.7955 14.5133 35.0922 13.2237 35.3921 12.5896C35.6923 11.9555 36.2539 11.6476 36.6471 11.902C37.0406 12.1564 37.1165 12.8766 36.8166 13.5107" fill="#FF7A7A"/>
<path fill-rule="evenodd" clip-rule="evenodd" d="M24.9603 12.8185C25.1078 13.4624 24.8346 14.7111 24.3036 14.8069C23.7722 14.9023 23.1842 13.8083 23.0367 13.1645C22.8891 12.521 23.2001 11.9214 23.7311 11.8256C24.262 11.7302 24.8123 12.1746 24.9603 12.8185" fill="#FF7A7A"/>
<path fill-rule="evenodd" clip-rule="evenodd" d="M47.7245 37.8023C47.0708 37.7235 45.952 37.0318 46.0016 36.4871C46.0512 35.9419 47.2502 35.7512 47.9035 35.8296C48.5564 35.9085 49.0461 36.4138 48.9965 36.9586C48.947 37.5033 48.3777 37.8812 47.7245 37.8023" fill="#FF7A7A"/>
<path fill-rule="evenodd" clip-rule="evenodd" d="M45.3881 41.6696C44.7471 41.3975 43.8174 40.479 44.0313 40.0513C44.2456 39.6236 45.5232 39.849 46.1638 40.1211C46.8047 40.3924 47.1509 40.9597 46.9365 41.3871C46.7222 41.8148 46.0287 41.9413 45.3881 41.6696" fill="#FF7A7A"/>
<path fill-rule="evenodd" clip-rule="evenodd" d="M43.5871 45.2772C43.2011 44.7134 42.8084 43.3088 43.1029 42.9188C43.3975 42.5285 44.2679 43.2998 44.6541 43.8641C45.0401 44.4275 45.1144 45.2015 44.8195 45.5919C44.525 45.9823 43.973 45.8415 43.5871 45.2772" fill="#FF7A7A"/>
<path fill-rule="evenodd" clip-rule="evenodd" d="M47.7243 33.8023C47.0709 33.7235 45.952 33.0318 46.0016 32.4871C46.0508 31.9419 47.25 31.7512 47.9037 31.8296C48.5567 31.9085 49.0461 32.4138 48.9965 32.9586C48.9473 33.5033 48.3776 33.8812 47.7243 33.8023" fill="#FF7A7A"/>
<path fill-rule="evenodd" clip-rule="evenodd" d="M12.6141 40.2973C13.1996 39.9316 14.5878 39.6192 14.9235 39.9579C15.2592 40.2962 14.4161 41.1571 13.8306 41.5234C13.2451 41.889 12.4978 41.9112 12.1621 41.5725C11.8264 41.2342 12.029 40.6632 12.6141 40.2973" fill="#FF7A7A"/>
<path fill-rule="evenodd" clip-rule="evenodd" d="M10.8894 35.9438C11.5224 35.707 12.8197 35.7777 12.9829 36.2661C13.1456 36.7553 12.1117 37.4769 11.4787 37.7141C10.8457 37.9509 10.2007 37.747 10.0376 37.2577C9.87478 36.7693 10.256 36.181 10.8894 35.9438" fill="#FF7A7A"/>
<path fill-rule="evenodd" clip-rule="evenodd" d="M10.2148 31.8143C10.8675 31.8444 12.0179 32.4563 11.9998 33.0079C11.9821 33.559 10.8031 33.8411 10.1504 33.8105C9.49768 33.7803 8.98311 33.3088 9.00042 32.7577C9.01812 32.2062 9.56205 31.7841 10.2148 31.8143" fill="#FF7A7A"/>
<path fill-rule="evenodd" clip-rule="evenodd" d="M15.6145 43.2974C16.2 42.9315 17.5877 42.6194 17.9234 42.9577C18.2595 43.2964 17.416 44.1573 16.8309 44.5232C16.2455 44.8892 15.4981 44.911 15.1621 44.5727C14.8264 44.2343 15.029 43.6631 15.6145 43.2974" fill="#FF7A7A"/>
<path fill-rule="evenodd" clip-rule="evenodd" d="M15 12.3125C15 13.1409 14.3281 13.8127 13.4998 13.8127C12.6714 13.8127 12 13.1409 12 12.3125C12 11.4842 12.6714 10.8127 13.4998 10.8127C14.3281 10.8127 15 11.4842 15 12.3125" fill="#FFD9D9"/>
<path fill-rule="evenodd" clip-rule="evenodd" d="M46 48.8129C46 49.3653 45.5522 49.8127 44.9998 49.8127C44.4474 49.8127 44 49.3653 44 48.8129C44 48.2605 44.4474 47.8127 44.9998 47.8127C45.5522 47.8127 46 48.2605 46 48.8129" fill="#FFD9D9"/>
</svg>
