<svg width="42" height="62" viewBox="0 0 42 62" fill="none" xmlns="http://www.w3.org/2000/svg">
<path fill-rule="evenodd" clip-rule="evenodd" d="M20.2788 54.6839C19.0544 54.4726 17.8437 54.162 16.7025 53.7699C15.0801 53.2123 13.6573 52.1779 12.0513 51.5327C8.42943 50.0771 6.43753 46.5701 5.90501 42.7953C5.62489 40.8117 6.28337 38.4559 5.62395 36.573C5.1248 35.1456 3.84167 33.9606 3.13196 32.6231C1.19035 28.9698 0.514479 24.6313 1.35486 20.5695C2.25304 16.2253 4.86817 12.2811 8.45293 9.69981C9.39342 9.02307 10.5285 8.39199 11.3501 7.57266C12.0198 6.90439 12.463 6.08695 13.1516 5.41256C14.8601 3.73814 16.8022 2.14936 19.116 1.42792C22.4879 0.376582 26.2489 1.3578 29.1817 3.33106C32.2871 5.41868 34.7617 8.3421 36.0307 11.8599C37.4412 15.7716 40.6222 18.6023 40.9663 22.9691C41.1829 25.7165 40.3266 28.4376 39.2413 30.9694C38.3248 33.1074 37.1441 35.107 36.4105 37.3048C35.5927 39.7562 35.2016 42.2184 34.7339 44.754C34.2461 47.3984 33.4616 50.119 31.6037 52.055C29.5432 54.2029 26.4256 55.0594 23.4561 54.9968C22.4113 54.9752 21.3401 54.8669 20.2788 54.6839Z" fill="#72CC72"/>
<mask id="mask0_15_745" style="mask-type:luminance" maskUnits="userSpaceOnUse" x="0" y="0" width="42" height="56">
<path fill-rule="evenodd" clip-rule="evenodd" d="M0 0.339844H41.7559V55.9274H0V0.339844Z" fill="white"/>
</mask>
<g mask="url(#mask0_15_745)">
<path fill-rule="evenodd" clip-rule="evenodd" d="M20.3328 53.5828C21.3562 53.7588 22.3665 53.8586 23.3348 53.8787C26.3509 53.9445 29.0156 52.9925 30.6657 51.2756C32.4199 49.4496 33.1045 46.727 33.5054 44.5584L33.6813 43.5957C34.071 41.4448 34.4751 39.2212 35.2059 37.0334C35.6796 35.6152 36.3296 34.2829 36.9587 32.9944C37.3292 32.2361 37.7114 31.4516 38.0465 30.6714C39.3438 27.6497 39.8474 25.3523 39.6794 23.2224C39.4908 20.8289 38.3307 18.9081 37.1029 16.8744C36.275 15.5042 35.4192 14.087 34.8363 12.4728C33.6976 9.31858 31.4819 6.56805 28.4285 4.51751C25.4988 2.54958 22.0898 1.89205 19.3094 2.75771C17.067 3.45585 15.1864 5.10458 13.798 6.46305C13.504 6.75098 13.2497 7.08791 12.9809 7.44445C12.6916 7.82711 12.3924 8.22331 12.0163 8.59851C11.3779 9.23458 10.6163 9.73858 9.88037 10.2262C9.58356 10.4227 9.29003 10.6164 9.01423 10.8147C5.62436 13.2526 3.2033 16.9542 2.3717 20.9694C1.60076 24.691 2.2079 28.7968 4.03723 32.2342C4.29436 32.7177 4.6523 33.1988 5.03216 33.708C5.6225 34.4999 6.2329 35.3189 6.5745 36.2933C7.02296 37.5743 6.9525 38.9458 6.88483 40.2721C6.8405 41.1289 6.79896 41.939 6.9007 42.6591C7.43923 46.4736 9.4333 49.3371 12.371 50.5168C13.1503 50.8295 13.875 51.2201 14.5755 51.5976C15.3814 52.0326 16.1421 52.4432 16.9401 52.7172C18.033 53.0914 19.1745 53.3826 20.3328 53.5828ZM23.6144 55.9274C23.5075 55.9274 23.4002 55.926 23.2924 55.9241C22.2223 55.9022 21.1098 55.7925 19.9856 55.5988C18.72 55.3814 17.4721 55.0626 16.2765 54.6524C15.3189 54.3234 14.4472 53.8535 13.6039 53.3985C12.9235 53.0317 12.2809 52.685 11.6094 52.4152C7.9731 50.956 5.51843 47.5045 4.87443 42.9452C4.74516 42.0305 4.7937 41.0832 4.8413 40.1666C4.90196 38.9864 4.95936 37.8716 4.64296 36.97C4.40496 36.291 3.91263 35.6302 3.39136 34.9306C2.98303 34.3823 2.56023 33.8158 2.23076 33.1951C0.180698 29.3432 -0.498302 24.7358 0.368298 20.555C1.3021 16.0432 4.0181 11.8871 7.82003 9.15291C8.11637 8.94011 8.43137 8.73105 8.75056 8.52011C9.40296 8.08798 10.0782 7.64091 10.572 7.14905C10.8464 6.87558 11.09 6.55311 11.3476 6.21151C11.6509 5.81065 11.9631 5.39578 12.3672 5.00098C13.9189 3.48198 16.0413 1.63258 18.7008 0.804246C22.0674 -0.245288 26.1311 0.508379 29.5695 2.81931C32.986 5.11345 35.4728 8.21118 36.7613 11.7779C37.2756 13.2026 38.0423 14.472 38.8538 15.8164C40.1512 17.965 41.4928 20.1858 41.7192 23.0619C41.9698 26.2371 40.8932 29.2284 39.9267 31.4792C39.5725 32.3042 39.1786 33.1116 38.7974 33.8918C38.1706 35.1775 37.5775 36.3918 37.1463 37.6821C36.4622 39.7303 36.0893 41.7855 35.6945 43.9611L35.5176 44.9304C35.065 47.3794 34.2721 50.4748 32.1413 52.6929C30.158 54.7574 27.0644 55.9274 23.6144 55.9274Z" fill="#38B038"/>
</g>
<path fill-rule="evenodd" clip-rule="evenodd" d="M24 60H17L20.5 10L24 60Z" fill="white"/>
<mask id="mask1_15_745" style="mask-type:luminance" maskUnits="userSpaceOnUse" x="16" y="10" width="9" height="52">
<path fill-rule="evenodd" clip-rule="evenodd" d="M16.3473 10.2507H24.9742V62.0001H16.3473V10.2507Z" fill="white"/>
</mask>
<g mask="url(#mask1_15_745)">
<path fill-rule="evenodd" clip-rule="evenodd" d="M18.4582 59.9273H22.8633L20.661 25.69L18.4582 59.9273ZM24.9742 62.0002H16.3473L19.6764 10.2507H21.6451L24.9742 62.0002Z" fill="#38B038"/>
</g>
<path fill-rule="evenodd" clip-rule="evenodd" d="M18.2605 37L10 23.12L11.7395 22L20 35.8805L18.2605 37Z" fill="#38B038"/>
<path fill-rule="evenodd" clip-rule="evenodd" d="M23.5452 40L22 38.5806L32.4548 27L34 28.4194L23.5452 40Z" fill="#38B038"/>
<path fill-rule="evenodd" clip-rule="evenodd" d="M22.2848 27L21 25.4134L28.7148 18L30 19.5861L22.2848 27Z" fill="#38B038"/>
<path fill-rule="evenodd" clip-rule="evenodd" d="M19.4008 22L16 16.0692L17.5992 15L21 20.9308L19.4008 22Z" fill="#38B038"/>
<path fill-rule="evenodd" clip-rule="evenodd" d="M17.1241 47L12 38.0212L13.8759 37L19 45.9792L17.1241 47Z" fill="#38B038"/>
</svg>
