<svg width="108" height="108" viewBox="0 0 108 108" fill="none" xmlns="http://www.w3.org/2000/svg">
<circle cx="54" cy="54" r="54" fill="white"/>
<g clip-path="url(#clip0_50_30)">
<path d="M53.5 86C70.897 86 85 71.897 85 54.5C85 37.103 70.897 23 53.5 23C36.103 23 22 37.103 22 54.5C22 71.897 36.103 86 53.5 86Z" fill="#C71C1C"/>
<path d="M52.6519 86.0001C69.5805 86.0001 83.3038 72.2667 83.3038 55.3258C83.3038 38.3848 69.5805 24.6514 52.6519 24.6514C35.7233 24.6514 22 38.3848 22 55.3258C22 72.2667 35.7233 86.0001 52.6519 86.0001Z" fill="#FA4141"/>
<path d="M77.2789 64.632C82.4152 51.0216 75.5537 35.8212 61.9532 30.6811C48.3527 25.541 33.1635 32.4076 28.0271 46.018C22.8908 59.6285 29.7523 74.8288 43.3528 79.9689C56.9533 85.109 72.1425 78.2425 77.2789 64.632Z" fill="#FF7A7A"/>
<path d="M76.4905 62.5486C80.4764 49.3749 73.0361 35.4619 59.872 31.473C46.7079 27.4841 32.805 34.9299 28.8191 48.1037C24.8331 61.2774 32.2735 75.1904 45.4376 79.1793C58.6017 83.1682 72.5045 75.7224 76.4905 62.5486Z" fill="#CF0C0C"/>
<path d="M60.9947 44.0892C60.9947 47.664 58.478 53.5129 52.6565 53.5129C46.8349 53.5129 44.9589 47.664 44.9589 44.0892C44.9589 40.5144 48.5496 37.6176 52.9745 37.6176C57.3994 37.6176 60.9947 40.5144 60.9947 44.0892Z" fill="#FA4141"/>
<path d="M60.0358 68.2966C56.5834 67.3741 51.5916 63.4348 53.0942 57.8027C54.5968 52.1753 60.7272 51.8708 64.175 52.7934C67.6273 53.7159 69.4941 57.9319 68.351 62.2171C67.2079 66.4976 63.4882 69.2191 60.0358 68.2966Z" fill="#FA4141"/>
<path d="M44.7053 67.8399C48.1576 66.9174 53.1495 62.9782 51.6469 57.3461C50.1442 51.7186 44.0139 51.4142 40.5661 52.3367C37.1137 53.2593 35.247 57.4752 36.3901 61.7604C37.5332 66.041 41.2575 68.7625 44.7053 67.8399Z" fill="#FA4141"/>
<path d="M71.1304 37.6222L53.4998 54.5L73.9375 41.4969L71.1304 37.6222Z" fill="#FF7A7A"/>
<path d="M52.4167 57.4706L55.5418 80.7369L48.2775 80.8338L52.4167 57.4706Z" fill="#FF7A7A"/>
<path d="M50.8079 54.1402L29.1073 45.759L32.3016 39.947L50.8079 54.1402Z" fill="#FF7A7A"/>
<path d="M52.3014 59.3064C54.5823 59.3064 56.4314 57.584 56.4314 55.4594C56.4314 53.3348 54.5823 51.6124 52.3014 51.6124C50.0205 51.6124 48.1715 53.3348 48.1715 55.4594C48.1715 57.584 50.0205 59.3064 52.3014 59.3064Z" fill="#FF7A7A"/>
<path d="M51.8452 35.1729C52.0019 35.957 51.7115 37.4792 51.1399 37.5945C50.5684 37.7098 49.9369 36.3768 49.7802 35.5926C49.6235 34.8085 49.9553 34.0797 50.5269 33.9597C51.0984 33.8444 51.6884 34.3887 51.8452 35.1729Z" fill="#FF7A7A"/>
<path d="M56.6342 35.7126C56.5328 36.506 55.7676 37.8529 55.1869 37.7791C54.6107 37.7053 54.4401 36.2385 54.5416 35.4451C54.643 34.6517 55.1961 34.0659 55.7722 34.1397C56.353 34.2135 56.7402 34.9193 56.6342 35.7126Z" fill="#FF7A7A"/>
<path d="M60.5613 37.553C60.1742 38.2542 58.9619 39.2228 58.4549 38.9415C57.9479 38.6601 58.3304 37.2348 58.7176 36.5383C59.1048 35.8371 59.8331 35.5004 60.3401 35.7772C60.8517 36.0539 60.9531 36.8519 60.5613 37.553Z" fill="#FF7A7A"/>
<path d="M48.0701 36.5198C48.2268 37.304 47.9364 38.8262 47.3649 38.9415C46.7933 39.0568 46.1618 37.7237 46.0051 36.9396C45.8484 36.1554 46.1803 35.4266 46.7518 35.3067C47.3234 35.196 47.9134 35.7357 48.0701 36.5198Z" fill="#FF7A7A"/>
<path d="M71.0705 62.2863C70.273 62.2032 68.9133 61.4652 68.9732 60.884C69.0332 60.3028 70.4943 60.0998 71.2871 60.1829C72.0845 60.2659 72.6791 60.8056 72.6192 61.3868C72.5593 61.968 71.8633 62.3693 71.0705 62.2863Z" fill="#FF7A7A"/>
<path d="M69.1162 66.696C68.3879 66.3592 67.337 65.2245 67.5767 64.6941C67.821 64.1636 69.2683 64.445 69.992 64.7817C70.7203 65.1184 71.112 65.8196 70.8677 66.3454C70.6281 66.8759 69.8445 67.0327 69.1162 66.696Z" fill="#FF7A7A"/>
<path d="M66.1893 69.8926C65.6362 69.3114 65.0785 67.8676 65.4979 67.4663C65.9174 67.065 67.1619 67.8584 67.7104 68.4396C68.2635 69.0208 68.3649 69.8142 67.9455 70.2201C67.526 70.6214 66.7378 70.4738 66.1893 69.8926Z" fill="#FF7A7A"/>
<path d="M70.9139 58.2778C70.1165 58.1948 68.7568 57.4567 68.8167 56.8756C68.8766 56.2944 70.3377 56.0914 71.1305 56.1744C71.928 56.2575 72.5226 56.7971 72.4626 57.3783C72.4073 57.9595 71.7113 58.3608 70.9139 58.2778Z" fill="#FF7A7A"/>
<path d="M34.6201 64.9754C35.247 64.4819 36.7404 64.0575 37.0999 64.5141C37.4595 64.9708 36.556 66.1378 35.9246 66.6314C35.2977 67.1249 34.4957 67.1572 34.1315 66.7006C33.772 66.2439 33.9886 65.469 34.6201 64.9754Z" fill="#FF7A7A"/>
<path d="M32.9471 60.4505C33.7031 60.1829 35.2472 60.2659 35.4408 60.8102C35.6344 61.3591 34.4037 62.1664 33.6477 62.4339C32.8918 62.7014 32.1221 62.4708 31.9285 61.9219C31.7395 61.3776 32.1912 60.718 32.9471 60.4505Z" fill="#FF7A7A"/>
<path d="M32.8225 56.1145C33.6199 56.1468 35.0303 56.7925 35.0073 57.3737C34.9842 57.9549 33.5415 58.2501 32.7441 58.2225C31.9467 58.1902 31.3152 57.692 31.3336 57.1108C31.3567 56.5296 32.0204 56.0822 32.8225 56.1145Z" fill="#FF7A7A"/>
<path d="M37.5241 67.743C38.151 67.2495 39.6444 66.8251 40.0039 67.2818C40.3634 67.7384 39.46 68.9054 38.8285 69.399C38.1971 69.8925 37.3996 69.9248 37.0355 69.4682C36.676 69.0115 36.8926 68.2366 37.5241 67.743Z" fill="#FF7A7A"/>
<path d="M35.9245 37.2855C36.7875 37.2855 37.4871 36.5545 37.4871 35.6526C37.4871 34.7508 36.7875 34.0197 35.9245 34.0197C35.0616 34.0197 34.362 34.7508 34.362 35.6526C34.362 36.5545 35.0616 37.2855 35.9245 37.2855Z" fill="#FFD9D9"/>
<path d="M68.66 75.6815C69.3397 75.6815 69.8907 75.1301 69.8907 74.4499C69.8907 73.7697 69.3397 73.2183 68.66 73.2183C67.9803 73.2183 67.4293 73.7697 67.4293 74.4499C67.4293 75.1301 67.9803 75.6815 68.66 75.6815Z" fill="#FFD9D9"/>
</g>
<defs>
<clipPath id="clip0_50_30">
<rect width="63" height="63" fill="white" transform="translate(22 23)"/>
</clipPath>
</defs>
</svg>
