<svg width="108" height="108" viewBox="0 0 108 108" fill="none" xmlns="http://www.w3.org/2000/svg">
<circle cx="54" cy="54" r="54" fill="white"/>
<path d="M35.784 70.4366C34.0199 59.0873 35.1558 36.6216 39.8951 29.0917C45.6647 19.9271 53.2134 25.9856 52.0173 34.8382C50.5598 45.6079 51.0473 56.8036 54.1231 68.1528C57.4954 80.6167 38.1662 84.5848 35.784 70.4366Z" fill="#239130"/>
<path d="M47.0217 24.6382C47.0217 24.6382 41.1164 24.5193 40.9053 20.6652C40.9053 20.6652 43.3931 20.1747 44.6043 21.1556C45.8155 22.1365 46.3131 22.9093 46.3131 22.9093C46.3131 22.9093 45.1722 21.0169 47.8761 18C47.8761 18 50.1528 20.7345 48.3033 23.4691C48.3033 23.4691 51.0775 21.5073 53.3542 23.6771C53.3542 23.6771 51.7811 26.0996 47.0217 24.6382Z" fill="#FFC82C"/>
<path d="M36.1409 72.0713C36.1409 72.0713 39.8248 77.4314 42.2874 76.9905C42.2874 76.9905 39.8097 68.6581 41.4883 60.94C41.4883 60.94 41.5185 75.6827 45.7401 77.045C45.7401 77.045 47.8359 69.9858 47.1272 65.131C47.1272 65.131 49.0572 73.716 48.7003 77.0103C48.7003 77.0103 50.2282 77.6444 53.892 74.1817C53.892 74.1817 52.2435 79.1157 45.6296 79.4724C45.6346 79.4724 38.4025 79.8687 36.1409 72.0713Z" fill="#64CC5C"/>
<path d="M40.7092 49.6948C40.7092 50.5865 40.3071 51.3097 39.8146 51.3097C39.322 51.3097 38.92 50.5865 38.92 49.6948C38.92 48.8031 39.322 48.0798 39.8146 48.0798C40.3071 48.0798 40.7092 48.8031 40.7092 49.6948Z" fill="#64CC5C"/>
<path d="M46.0818 54.3266C46.0818 55.2183 45.6797 55.9415 45.1872 55.9415C44.6947 55.9415 44.2926 55.2183 44.2926 54.3266C44.2926 53.4349 44.6947 52.7116 45.1872 52.7116C45.6797 52.7116 46.0818 53.4349 46.0818 54.3266Z" fill="#64CC5C"/>
<path d="M39.704 61.0985C39.704 61.9902 39.302 62.7135 38.8094 62.7135C38.3169 62.7135 37.9149 61.9902 37.9149 61.0985C37.9149 60.2068 38.3169 59.4836 38.8094 59.4836C39.302 59.4836 39.704 60.2068 39.704 61.0985Z" fill="#64CC5C"/>
<path d="M45.6495 66.2852C45.6495 67.1769 45.2474 67.9002 44.7549 67.9002C44.2624 67.9002 43.8603 67.1769 43.8603 66.2852C43.8603 65.3936 44.2624 64.6703 44.7549 64.6703C45.2524 64.6703 45.6495 65.3936 45.6495 66.2852Z" fill="#64CC5C"/>
<path d="M51.3339 61.8268C51.3339 62.7185 50.9318 63.4417 50.4393 63.4417C49.9467 63.4417 49.5447 62.7185 49.5447 61.8268C49.5447 60.9351 49.9467 60.2118 50.4393 60.2118C50.9368 60.2118 51.3339 60.9351 51.3339 61.8268Z" fill="#64CC5C"/>
<path d="M48.9214 46.9454C48.9214 47.8371 48.5193 48.5604 48.0268 48.5604C47.5343 48.5604 47.1322 47.8371 47.1322 46.9454C47.1322 46.0537 47.5343 45.3304 48.0268 45.3304C48.5193 45.3304 48.9214 46.0488 48.9214 46.9454Z" fill="#64CC5C"/>
<path d="M41.7998 40.2775C41.7998 41.1692 41.3977 41.8925 40.9052 41.8925C40.4127 41.8925 40.0106 41.1692 40.0106 40.2775C40.0106 39.3858 40.4127 38.6625 40.9052 38.6625C41.3977 38.6625 41.7998 39.3858 41.7998 40.2775Z" fill="#64CC5C"/>
<path d="M48.7355 34.541C48.7355 35.4327 48.3334 36.1559 47.8409 36.1559C47.3484 36.1559 46.9463 35.4327 46.9463 34.541C46.9463 33.6493 47.3484 32.926 47.8409 32.926C48.3384 32.926 48.7355 33.6493 48.7355 34.541Z" fill="#64CC5C"/>
<path d="M44.2877 28.8093C44.2877 29.701 43.8857 30.4242 43.3931 30.4242C42.9006 30.4242 42.4985 29.701 42.4985 28.8093C42.4985 27.9176 42.9006 27.1943 43.3931 27.1943C43.8907 27.1943 44.2877 27.9176 44.2877 28.8093Z" fill="#64CC5C"/>
<path d="M53.1279 71.8187C53.1279 72.7104 52.7259 73.4337 52.2333 73.4337C51.7408 73.4337 51.3387 72.7104 51.3387 71.8187C51.3387 70.927 51.7408 70.2038 52.2333 70.2038C52.7259 70.2087 53.1279 70.927 53.1279 71.8187Z" fill="#64CC5C"/>
<path d="M72.3417 83.4255C73.8193 73.9141 72.8694 55.0795 68.899 48.7683C64.0642 41.0899 57.7368 46.1626 58.7419 53.5835C59.9632 62.6094 59.5561 71.997 56.9779 81.5084C54.1483 91.956 70.3465 95.285 72.3417 83.4255Z" fill="#48B53C"/>
<path d="M62.9233 45.0331C62.9233 45.0331 67.8737 44.9341 68.0496 41.7041C68.0496 41.7041 65.9639 41.293 64.9487 42.1153C63.9335 42.9377 63.5164 43.5866 63.5164 43.5866C63.5164 43.5866 64.4713 42.0014 62.2046 39.4749C62.2046 39.4749 60.2948 41.7685 61.8478 44.0572C61.8478 44.0572 59.5209 42.4126 57.6161 44.2356C57.6161 44.2306 58.9379 46.2567 62.9233 45.0331Z" fill="#FFC82C"/>
<path d="M72.0451 84.7928C72.0451 84.7928 68.9542 89.286 66.8936 88.9144C66.8936 88.9144 68.9693 81.9295 67.5621 75.4598C67.5621 75.4598 67.5369 87.8196 63.9988 88.959C63.9988 88.959 62.2397 83.0441 62.8378 78.9721C62.8378 78.9721 61.2195 86.17 61.516 88.9293C61.516 88.9293 60.2345 89.4643 57.1637 86.5564C57.1637 86.5564 58.5458 90.6929 64.0892 90.9901C64.0892 90.9951 70.1503 91.3319 72.0451 84.7928Z" fill="#64CC5C"/>
<path d="M68.2153 66.0375C68.2153 66.7856 68.552 67.3899 68.9641 67.3899C69.3762 67.3899 69.713 66.7856 69.713 66.0375C69.713 65.2895 69.3762 64.6851 68.9641 64.6851C68.552 64.6851 68.2153 65.2895 68.2153 66.0375Z" fill="#64CC5C"/>
<path d="M63.7122 69.9214C63.7122 70.6694 64.0489 71.2738 64.461 71.2738C64.8731 71.2738 65.2098 70.6694 65.2098 69.9214C65.2098 69.1734 64.8731 68.569 64.461 68.569C64.0489 68.564 63.7122 69.1734 63.7122 69.9214Z" fill="#64CC5C"/>
<path d="M69.0598 75.5984C69.0598 76.3465 69.3965 76.9508 69.8087 76.9508C70.2208 76.9508 70.5575 76.3465 70.5575 75.5984C70.5575 74.8504 70.2208 74.246 69.8087 74.246C69.3965 74.246 69.0598 74.8504 69.0598 75.5984Z" fill="#64CC5C"/>
<path d="M64.0742 79.943C64.0742 80.691 64.4109 81.2954 64.823 81.2954C65.2351 81.2954 65.5718 80.691 65.5718 79.943C65.5718 79.1949 65.2351 78.5905 64.823 78.5905C64.4109 78.5905 64.0742 79.1949 64.0742 79.943Z" fill="#64CC5C"/>
<path d="M59.3097 76.2078C59.3097 76.9558 59.6464 77.5602 60.0585 77.5602C60.4757 77.5602 60.8074 76.9558 60.8074 76.2078C60.8074 75.4597 60.4707 74.8553 60.0585 74.8553C59.6414 74.8504 59.3097 75.4597 59.3097 76.2078Z" fill="#64CC5C"/>
<path d="M61.3352 63.729C61.3352 64.477 61.6719 65.0814 62.084 65.0814C62.5012 65.0814 62.8329 64.477 62.8329 63.729C62.8329 62.981 62.4962 62.3766 62.084 62.3766C61.6719 62.3766 61.3352 62.9859 61.3352 63.729Z" fill="#64CC5C"/>
<path d="M67.3008 58.146C67.3008 58.894 67.6375 59.4984 68.0496 59.4984C68.4617 59.4984 68.7985 58.894 68.7985 58.146C68.7985 57.398 68.4617 56.7936 68.0496 56.7936C67.6375 56.7936 67.3008 57.398 67.3008 58.146Z" fill="#64CC5C"/>
<path d="M61.4858 53.3358C61.4858 54.0838 61.8226 54.6882 62.2347 54.6882C62.6468 54.6882 62.9835 54.0838 62.9835 53.3358C62.9835 52.5878 62.6468 51.9834 62.2347 51.9834C61.8226 51.9834 61.4858 52.5878 61.4858 53.3358Z" fill="#64CC5C"/>
<path d="M65.215 48.5307C65.215 49.2787 65.5518 49.8831 65.9639 49.8831C66.376 49.8831 66.7127 49.2787 66.7127 48.5307C66.7127 47.7826 66.376 47.1783 65.9639 47.1783C65.5518 47.1783 65.215 47.7826 65.215 48.5307Z" fill="#64CC5C"/>
<path d="M57.8069 84.5848C57.8069 85.3328 58.1436 85.9372 58.5557 85.9372C58.9678 85.9372 59.3046 85.3328 59.3046 84.5848C59.3046 83.8368 58.9678 83.2324 58.5557 83.2324C58.1436 83.2324 57.8069 83.8368 57.8069 84.5848Z" fill="#64CC5C"/>
</svg>
